<?xml version="1.0" encoding="UTF-8" standalone="no"?>
<!DOCTYPE svg PUBLIC "-//W3C//DTD SVG 1.1//EN"
 "http://www.w3.org/Graphics/SVG/1.1/DTD/svg11.dtd">
<!-- Generated by graphviz version 14.1.5 (20260411.2331)
 -->
<!-- Title: concept Pages: 1 -->
<svg width="511pt" height="67pt"
 viewBox="0.00 0.00 511.00 67.00" xmlns="http://www.w3.org/2000/svg" xmlns:xlink="http://www.w3.org/1999/xlink">
<g id="graph0" class="graph" transform="scale(1 1) rotate(0) translate(8.64 58.36)">
<title>concept</title>
<polygon fill="white" stroke="none" points="-8.64,8.64 -8.64,-58.36 502.59,-58.36 502.59,8.64 -8.64,8.64"/>
<!-- n0 -->
<g id="node1" class="node">
<title>n0</title>
<path fill="#e9eff5" stroke="#33485e" stroke-width="1.2" d="M84.3,-49.72C84.3,-49.72 12,-49.72 12,-49.72 6,-49.72 0,-43.72 0,-37.72 0,-37.72 0,-12 0,-12 0,-6 6,0 12,0 12,0 84.3,0 84.3,0 90.3,0 96.3,-6 96.3,-12 96.3,-12 96.3,-37.72 96.3,-37.72 96.3,-43.72 90.3,-49.72 84.3,-49.72"/>
<text xml:space="preserve" text-anchor="start" x="31.65" y="-29.01" font-family="Helvetica,sans-Serif" font-weight="bold" font-size="13.00">Blink</text>
<text xml:space="preserve" text-anchor="start" x="20.02" y="-19.81" font-family="Helvetica,sans-Serif" font-size="9.00">a few emitters</text>
<text xml:space="preserve" text-anchor="start" x="14.4" y="-10.81" font-family="Helvetica,sans-Serif" font-size="9.00">are on per frame</text>
</g>
<!-- n1 -->
<g id="node2" class="node">
<title>n1</title>
<path fill="#e9eff5" stroke="#33485e" stroke-width="1.2" d="M210.85,-49.72C210.85,-49.72 148.3,-49.72 148.3,-49.72 142.3,-49.72 136.3,-43.72 136.3,-37.72 136.3,-37.72 136.3,-12 136.3,-12 136.3,-6 142.3,0 148.3,0 148.3,0 210.85,0 210.85,0 216.85,0 222.85,-6 222.85,-12 222.85,-12 222.85,-37.72 222.85,-37.72 222.85,-43.72 216.85,-49.72 210.85,-49.72"/>
<text xml:space="preserve" text-anchor="start" x="152.95" y="-29.01" font-family="Helvetica,sans-Serif" font-weight="bold" font-size="13.00">Localize</text>
<text xml:space="preserve" text-anchor="start" x="150.7" y="-19.81" font-family="Helvetica,sans-Serif" font-size="9.00">find the centre</text>
<text xml:space="preserve" text-anchor="start" x="154.82" y="-10.81" font-family="Helvetica,sans-Serif" font-size="9.00">of each spot</text>
</g>
<!-- n0&#45;&gt;n1 -->
<g id="edge1" class="edge">
<title>n0&#45;&gt;n1</title>
<path fill="none" stroke="#33485e" stroke-width="1.5" d="M96.61,-24.86C105.94,-24.86 115.78,-24.86 125.29,-24.86"/>
<polygon fill="#33485e" stroke="#33485e" stroke-width="1.5" points="125.06,-27.84 133.56,-24.86 125.06,-21.89 125.06,-27.84"/>
</g>
<!-- n2 -->
<g id="node3" class="node">
<title>n2</title>
<path fill="#e9eff5" stroke="#33485e" stroke-width="1.2" d="M355.4,-49.72C355.4,-49.72 274.85,-49.72 274.85,-49.72 268.85,-49.72 262.85,-43.72 262.85,-37.72 262.85,-37.72 262.85,-12 262.85,-12 262.85,-6 268.85,0 274.85,0 274.85,0 355.4,0 355.4,0 361.4,0 367.4,-6 367.4,-12 367.4,-12 367.4,-37.72 367.4,-37.72 367.4,-43.72 361.4,-49.72 355.4,-49.72"/>
<text xml:space="preserve" text-anchor="start" x="277.25" y="-29.01" font-family="Helvetica,sans-Serif" font-weight="bold" font-size="13.00">Accumulate</text>
<text xml:space="preserve" text-anchor="start" x="285.88" y="-19.81" font-family="Helvetica,sans-Serif" font-size="9.00">collect centres</text>
<text xml:space="preserve" text-anchor="start" x="285.12" y="-10.81" font-family="Helvetica,sans-Serif" font-size="9.00">from all frames</text>
</g>
<!-- n1&#45;&gt;n2 -->
<g id="edge2" class="edge">
<title>n1&#45;&gt;n2</title>
<path fill="none" stroke="#33485e" stroke-width="1.5" d="M223.2,-24.86C232.39,-24.86 242.29,-24.86 252.06,-24.86"/>
<polygon fill="#33485e" stroke="#33485e" stroke-width="1.5" points="251.79,-27.84 260.29,-24.86 251.79,-21.89 251.79,-27.84"/>
</g>
<!-- n3 -->
<g id="node4" class="node">
<title>n3</title>
<path fill="#e9eff5" stroke="#33485e" stroke-width="1.2" d="M481.95,-49.72C481.95,-49.72 419.4,-49.72 419.4,-49.72 413.4,-49.72 407.4,-43.72 407.4,-37.72 407.4,-37.72 407.4,-12 407.4,-12 407.4,-6 413.4,0 419.4,0 419.4,0 481.95,0 481.95,0 487.95,0 493.95,-6 493.95,-12 493.95,-12 493.95,-37.72 493.95,-37.72 493.95,-43.72 487.95,-49.72 481.95,-49.72"/>
<text xml:space="preserve" text-anchor="start" x="421.8" y="-29.01" font-family="Helvetica,sans-Serif" font-weight="bold" font-size="13.00">Compare</text>
<text xml:space="preserve" text-anchor="start" x="423.67" y="-19.81" font-family="Helvetica,sans-Serif" font-size="9.00">raw mean vs.</text>
<text xml:space="preserve" text-anchor="start" x="421.8" y="-10.81" font-family="Helvetica,sans-Serif" font-size="9.00">reconstruction</text>
</g>
<!-- n2&#45;&gt;n3 -->
<g id="edge3" class="edge">
<title>n2&#45;&gt;n3</title>
<path fill="none" stroke="#33485e" stroke-width="1.5" d="M367.76,-24.86C377.04,-24.86 386.74,-24.86 396.08,-24.86"/>
<polygon fill="#33485e" stroke="#33485e" stroke-width="1.5" points="396.06,-27.84 404.56,-24.86 396.06,-21.89 396.06,-27.84"/>
</g>
</g>
</svg>
